<svg width="100" height="21" viewBox="0 0 100 21" fill="none" xmlns="http://www.w3.org/2000/svg">
<g clip-path="url(#clip0_14_59)">
<path d="M2.77792 20.268V6.20301H3.44257V20.268H2.77792ZM0.16217 10.9842V10.4054H6.03688V10.9842H0.16217ZM12.5206 20.4824C11.5344 20.4824 10.6482 20.2608 9.86201 19.8177C9.09015 19.3603 8.47552 18.7457 8.01812 17.9739C7.57502 17.1878 7.35346 16.3015 7.35346 15.3152C7.35346 14.3433 7.56787 13.4713 7.99668 12.6995C8.43978 11.9276 9.04011 11.3201 9.79769 10.877C10.5695 10.4196 11.4343 10.1909 12.392 10.1909C13.2782 10.1909 14.0572 10.3911 14.729 10.7913C15.4151 11.1772 15.9511 11.7204 16.3371 12.4208C16.723 13.1211 16.9159 13.9287 16.9159 14.8435C16.9159 14.9007 16.9087 14.9936 16.8945 15.1223C16.8945 15.2366 16.8803 15.3867 16.8516 15.5725H7.82516V14.9507H16.4228L16.2298 15.1008C16.287 14.2575 16.1584 13.5142 15.8439 12.871C15.5295 12.2278 15.0721 11.7275 14.4717 11.3702C13.8857 10.9985 13.1853 10.8127 12.3706 10.8127C11.5129 10.8127 10.7554 11.0057 10.0979 11.3916C9.45464 11.7633 8.94722 12.285 8.57557 12.9568C8.21824 13.6143 8.03956 14.3861 8.03956 15.2724C8.03956 16.1871 8.22537 16.9876 8.59702 17.6737C8.98295 18.3598 9.51896 18.8958 10.2051 19.2817C10.8912 19.6677 11.6916 19.8606 12.6064 19.8606C13.2925 19.8606 13.9214 19.732 14.4932 19.4747C15.0792 19.2174 15.5723 18.8315 15.9726 18.3169L16.4228 18.7672C15.9797 19.296 15.4151 19.7177 14.729 20.0321C14.0572 20.3323 13.3211 20.4824 12.5206 20.4824ZM19.6173 20.268V10.4054H20.2819V20.268H19.6173ZM26.6498 20.268V14.0502C26.6498 13.0783 26.3639 12.2921 25.7922 11.6918C25.2205 11.0915 24.4843 10.7913 23.5838 10.7913C22.9835 10.7913 22.4332 10.9271 21.9329 11.1987C21.4325 11.4702 21.0324 11.849 20.7322 12.335C20.432 12.8067 20.2819 13.3641 20.2819 14.0074L19.8317 13.9859C19.8317 13.2283 19.996 12.5637 20.3248 11.992C20.6679 11.4202 21.1253 10.9771 21.697 10.6626C22.2831 10.3482 22.9334 10.1909 23.6481 10.1909C24.3484 10.1909 24.9702 10.3482 25.5134 10.6626C26.0709 10.9771 26.5069 11.4202 26.8213 11.992C27.1501 12.5637 27.3144 13.2355 27.3144 14.0074V20.268H26.6498ZM33.6823 20.268V14.0502C33.6823 13.0783 33.3964 12.2921 32.8247 11.6918C32.253 11.0915 31.5168 10.7913 30.6163 10.7913C30.016 10.7913 29.4657 10.9271 28.9654 11.1987C28.465 11.4702 28.0649 11.849 27.7647 12.335C27.4645 12.8067 27.3144 13.3641 27.3144 14.0074L26.8642 13.9859C26.8642 13.2141 27.0357 12.5494 27.3788 11.992C27.7218 11.4202 28.1793 10.9771 28.751 10.6626C29.3371 10.3482 29.9803 10.1909 30.6806 10.1909C31.3809 10.1909 32.0027 10.3482 32.5459 10.6626C33.1034 10.9771 33.5394 11.4273 33.8538 12.0134C34.1826 12.5851 34.3469 13.2569 34.3469 14.0288V20.268H33.6823ZM37.5612 20.268V10.4054H38.2258V20.268H37.5612ZM37.8828 7.9397C37.697 7.9397 37.5397 7.86822 37.4111 7.72529C37.2825 7.58236 37.2181 7.41797 37.2181 7.23216C37.2181 7.03204 37.2825 6.86767 37.4111 6.73903C37.5397 6.61038 37.697 6.54606 37.8828 6.54606C38.083 6.54606 38.2473 6.61038 38.3759 6.73903C38.5188 6.86767 38.5903 7.03204 38.5903 7.23216C38.5903 7.41797 38.5188 7.58236 38.3759 7.72529C38.2473 7.86822 38.083 7.9397 37.8828 7.9397ZM40.7211 19.9035L47.6893 10.7698H48.4826L41.5145 19.9035H40.7211ZM40.7211 20.268V19.9035L41.1714 19.6891H48.3754V20.268H40.7211ZM41.0642 10.9842V10.4054H48.4826V10.7698L47.818 10.9842H41.0642ZM51.7977 20.3752C51.2545 20.3752 50.8686 20.0893 50.6399 19.5176C50.4255 18.9459 50.3183 18.031 50.3183 16.7732C50.3183 14.915 50.5828 13.1497 51.1116 11.4774C51.2403 11.0629 51.4475 10.7627 51.7334 10.5769C52.0336 10.3768 52.4481 10.2767 52.9769 10.2767C53.2629 10.2767 53.4629 10.3124 53.5773 10.3839C53.6917 10.4554 53.7488 10.5912 53.7488 10.7913C53.7488 11.02 53.6416 11.5345 53.4272 12.335C53.2843 12.9067 53.1699 13.407 53.0841 13.8358C52.9984 14.2504 52.9269 14.7721 52.8697 15.401C53.2557 14.2861 53.7131 13.3427 54.2419 12.5708C54.7851 11.799 55.3354 11.2272 55.8929 10.8556C56.4645 10.4697 57.0006 10.2767 57.5009 10.2767C58.0012 10.2767 58.3513 10.3911 58.5515 10.6198C58.7659 10.8485 58.8731 11.1987 58.8731 11.6703C58.8731 12.1277 58.7372 12.9568 58.4657 14.1574C58.3513 14.672 58.2728 15.0579 58.2299 15.3152C58.9446 13.5571 59.7379 12.2778 60.6098 11.4774C61.4816 10.6769 62.2964 10.2767 63.054 10.2767C63.9831 10.2767 64.4476 10.7412 64.4476 11.6703C64.4476 12.2278 64.2903 13.2355 63.9759 14.6935C63.7044 15.937 63.5686 16.7589 63.5686 17.1591C63.5686 17.7308 63.7758 18.0167 64.1903 18.0167C64.4763 18.0167 64.8121 17.8452 65.198 17.5022C65.5982 17.1449 66.1272 16.5731 66.7847 15.7869C66.9562 15.5868 67.1491 15.4868 67.3635 15.4868C67.5493 15.4868 67.6924 15.5725 67.7924 15.744C67.9068 15.9156 67.9639 16.1514 67.9639 16.4516C67.9639 17.0233 67.828 17.4665 67.5565 17.7809C66.9419 18.5385 66.2773 19.1603 65.5625 19.6462C64.8622 20.1321 64.0617 20.3752 63.1612 20.3752C62.4322 20.3752 61.882 20.168 61.5103 19.7534C61.1386 19.3246 60.9528 18.71 60.9528 17.9095C60.9528 17.5094 61.0528 16.7946 61.253 15.7655C61.4387 14.865 61.5317 14.2432 61.5317 13.9002C61.5317 13.6715 61.4532 13.5571 61.2959 13.5571C61.1101 13.5571 60.8456 13.8001 60.5026 14.2861C60.1595 14.7578 59.8165 15.3867 59.4734 16.1729C59.1304 16.9589 58.8516 17.7881 58.6372 18.66C58.48 19.346 58.2942 19.8035 58.0798 20.0321C57.8796 20.2608 57.551 20.3752 57.0935 20.3752C56.6218 20.3752 56.2645 20.1536 56.0215 19.7105C55.7929 19.2531 55.6784 18.7028 55.6784 18.0596C55.6784 17.5164 55.75 16.7303 55.8929 15.7012C56.0073 14.7864 56.0644 14.186 56.0644 13.9002C56.0644 13.6715 55.9858 13.5571 55.8285 13.5571C55.6141 13.5571 55.3426 13.8144 55.0138 14.329C54.685 14.8435 54.3634 15.501 54.049 16.3015C53.7488 17.102 53.5057 17.8881 53.32 18.66C53.1627 19.3318 52.9769 19.7891 52.7625 20.0321C52.5624 20.2608 52.2408 20.3752 51.7977 20.3752ZM68.8674 20.3752C67.9811 20.3752 67.2736 20.0536 66.7448 19.4104C66.216 18.7672 65.9515 17.9238 65.9515 16.8804C65.9515 15.7369 66.216 14.6577 66.7448 13.6429C67.2736 12.6137 67.9741 11.7918 68.846 11.1772C69.7322 10.5483 70.6684 10.2338 71.6547 10.2338C71.9691 10.2338 72.1764 10.2982 72.2764 10.4268C72.3908 10.5411 72.4836 10.7556 72.5552 11.07C72.8553 11.0128 73.1697 10.9842 73.4986 10.9842C74.1989 10.9842 74.5491 11.2344 74.5491 11.7347C74.5491 12.0348 74.4419 12.7495 74.2275 13.8787C73.8987 15.5225 73.7344 16.666 73.7344 17.3092C73.7344 17.5236 73.7845 17.6951 73.8845 17.8238C73.9989 17.9524 74.1418 18.0167 74.3133 18.0167C74.5848 18.0167 74.9136 17.8452 75.2996 17.5022C75.6855 17.1449 76.2073 16.5731 76.8647 15.7869C77.0362 15.5868 77.2292 15.4868 77.4436 15.4868C77.6294 15.4868 77.7724 15.5725 77.8724 15.744C77.9868 15.9156 78.044 16.1514 78.044 16.4516C78.044 17.0233 77.9081 17.4665 77.6366 17.7809C77.0505 18.5099 76.4287 19.1244 75.7713 19.6248C75.1138 20.1251 74.4776 20.3752 73.863 20.3752C73.3914 20.3752 72.9553 20.2179 72.5552 19.9035C72.1692 19.5747 71.8763 19.1316 71.6761 18.5742C70.9329 19.7749 69.9965 20.3752 68.8674 20.3752ZM69.6393 18.2097C69.9537 18.2097 70.2538 18.0239 70.5398 17.6522C70.8257 17.2806 71.0329 16.7874 71.1615 16.1729L71.9548 12.2278C71.3545 12.2421 70.797 12.4708 70.2825 12.9139C69.7821 13.3427 69.382 13.9144 69.0818 14.6291C68.7816 15.3438 68.6316 16.1014 68.6316 16.9018C68.6316 17.3449 68.7173 17.6737 68.8888 17.8881C69.0746 18.1025 69.3249 18.2097 69.6393 18.2097ZM85.8639 15.4868C86.0496 15.4868 86.1927 15.5725 86.2927 15.744C86.4071 15.9156 86.4642 16.1514 86.4642 16.4516C86.4642 17.0233 86.3284 17.4665 86.0568 17.7809C85.4423 18.5385 84.7704 19.1603 84.0414 19.6462C83.3125 20.1321 82.4763 20.3752 81.5329 20.3752C78.617 20.3752 77.159 18.3241 77.159 14.2218C77.159 13.5928 77.1805 12.9568 77.2233 12.3136H76.3872C75.9584 12.3136 75.6654 12.2349 75.5081 12.0777C75.3652 11.9205 75.2937 11.6703 75.2937 11.3273C75.2937 10.5268 75.6153 10.1266 76.2585 10.1266H77.4806C77.7237 8.55432 78.0952 7.1178 78.5955 5.81708C79.0959 4.51637 79.6962 3.48007 80.3966 2.70821C81.1113 1.93635 81.8759 1.55042 82.6907 1.55042C83.291 1.55042 83.7627 1.81486 84.1058 2.34372C84.4488 2.87258 84.6203 3.53724 84.6203 4.33769C84.6203 6.55321 83.6912 8.48286 81.8331 10.1266H84.2344C84.463 10.1266 84.6275 10.1767 84.7275 10.2767C84.8275 10.3768 84.8776 10.5626 84.8776 10.8342C84.8776 11.8204 84.0701 12.3136 82.4548 12.3136H79.8391C79.8105 13.0282 79.7962 13.5857 79.7962 13.9859C79.7962 15.4725 79.9677 16.5159 80.3108 17.1162C80.6681 17.7166 81.2255 18.0167 81.9831 18.0167C82.5977 18.0167 83.1409 17.831 83.6126 17.4593C84.0843 17.0876 84.6418 16.5302 85.285 15.7869C85.4565 15.5868 85.6495 15.4868 85.8639 15.4868ZM82.1118 3.60871C81.8974 3.60871 81.6543 3.88029 81.3828 4.42345C81.1255 4.95231 80.8754 5.69559 80.6324 6.65326C80.4038 7.59665 80.2108 8.64723 80.0535 9.80502C80.8969 9.07604 81.5257 8.2613 81.9403 7.3608C82.3691 6.44601 82.5835 5.61697 82.5835 4.8737C82.5835 4.03037 82.4262 3.60871 82.1118 3.60871ZM87.5272 8.86164C86.9269 8.86164 86.4766 8.72584 86.1764 8.45427C85.8763 8.16839 85.7262 7.77532 85.7262 7.27504C85.7262 6.77475 85.9192 6.36025 86.3051 6.03149C86.7053 5.68844 87.1984 5.51692 87.7845 5.51692C88.3133 5.51692 88.7421 5.64556 89.0709 5.90285C89.3997 6.16013 89.5641 6.52462 89.5641 6.99631C89.5641 7.56805 89.3783 8.02546 89.0066 8.3685C88.6349 8.69727 88.1418 8.86164 87.5272 8.86164ZM87.3557 20.3752C86.4265 20.3752 85.7476 20.0464 85.3188 19.3889C84.9043 18.7315 84.6971 17.8594 84.6971 16.7732C84.6971 16.13 84.7756 15.3081 84.9329 14.3075C85.1044 13.2927 85.3188 12.3493 85.5761 11.4774C85.7048 11.02 85.8763 10.7055 86.0907 10.534C86.3051 10.3625 86.6481 10.2767 87.1198 10.2767C87.8488 10.2767 88.2133 10.5197 88.2133 11.0057C88.2133 11.363 88.0774 12.1921 87.8059 13.4928C87.4629 15.0651 87.2914 16.13 87.2914 16.6874C87.2914 17.1162 87.3485 17.445 87.4629 17.6737C87.5773 17.9023 87.7703 18.0167 88.0418 18.0167C88.2991 18.0167 88.6207 17.838 89.0066 17.4807C89.3925 17.1234 89.9071 16.5588 90.5503 15.7869C90.7218 15.5868 90.9148 15.4868 91.1292 15.4868C91.315 15.4868 91.458 15.5725 91.558 15.744C91.6724 15.9156 91.7295 16.1514 91.7295 16.4516C91.7295 17.0233 91.5937 17.4665 91.3222 17.7809C89.9071 19.5104 88.585 20.3752 87.3557 20.3752ZM99.1071 18.0382C99.6932 18.1526 99.9862 18.4742 99.9862 19.003C99.9862 19.3603 99.8218 19.6819 99.493 19.9678C99.1786 20.2393 98.7212 20.3752 98.1208 20.3752C97.0917 20.3752 96.2483 20.0608 95.5909 19.4318C94.9476 18.7886 94.626 17.9524 94.626 16.9233C94.626 16.3658 94.912 15.9656 95.4837 15.7226C96.1126 15.451 96.5629 15.1651 96.8344 14.865C97.1059 14.5505 97.2418 14.1717 97.2418 13.7286C97.2418 13.4713 97.1847 13.2784 97.0702 13.1497C96.9702 13.0211 96.8416 12.9568 96.6843 12.9568C96.2984 12.9568 95.8696 13.2355 95.3979 13.793C94.9404 14.3504 94.5116 15.0722 94.1115 15.9584C93.7113 16.8303 93.3967 17.7308 93.1681 18.66C93.0108 19.3318 92.825 19.7891 92.6106 20.0321C92.4105 20.2608 92.0888 20.3752 91.6458 20.3752C91.2027 20.3752 90.8739 20.2179 90.6595 19.9035C90.4594 19.5747 90.3237 19.0745 90.2522 18.4027C90.1806 17.7308 90.145 16.7446 90.145 15.4439C90.145 13.2427 90.3666 10.9485 90.8096 8.56147C91.2671 6.17442 91.9317 4.17332 92.8036 2.55813C93.6898 0.928646 94.7475 0.113907 95.9768 0.113907C96.6342 0.113907 97.1632 0.39978 97.5634 0.971529C97.978 1.52898 98.1852 2.25796 98.1852 3.15846C98.1852 4.60213 97.7635 6.10296 96.9202 7.66097C96.0768 9.20468 94.7046 11.0128 92.8036 13.0854C92.7607 13.8287 92.7393 14.5934 92.7393 15.3796C93.4254 13.5928 94.2115 12.2993 95.0977 11.4988C95.984 10.6841 96.813 10.2767 97.5848 10.2767C98.2996 10.2767 98.8713 10.5197 99.3001 11.0057C99.7431 11.4917 99.9647 12.092 99.9647 12.8067C99.9647 13.5928 99.7646 14.3147 99.3644 14.9722C98.9642 15.6297 98.2781 16.2157 97.3061 16.7303C97.3919 17.1591 97.5634 17.4593 97.8207 17.6308C98.0922 17.7881 98.521 17.9238 99.1071 18.0382ZM95.5265 2.23652C95.2693 2.23652 94.9833 2.60816 94.6689 3.35143C94.3545 4.0804 94.0471 5.07382 93.747 6.33166C93.461 7.57521 93.2252 8.93311 93.0394 10.4054C93.9257 9.36192 94.6547 8.22557 95.2264 6.99631C95.8125 5.76705 96.1054 4.65214 96.1054 3.65159C96.1054 3.19419 96.0553 2.84401 95.9553 2.60101C95.8553 2.35801 95.7123 2.23652 95.5265 2.23652Z" fill="black"/>
</g>
<defs>
<clipPath id="clip0_14_59">
<rect width="100" height="20.603" fill="white"/>
</clipPath>
</defs>
</svg>
