<svg width="1000" height="179" viewBox="0 0 1000 179" fill="none" xmlns="http://www.w3.org/2000/svg">
<path d="M27.7789 175.696V53.7717H34.4255V175.696H27.7789ZM1.62146 95.2185V90.2003H60.3685V95.2185H1.62146ZM125.206 177.555C115.343 177.555 106.481 175.633 98.6198 171.793C90.9012 167.827 84.7549 162.5 80.1809 155.809C75.7499 148.994 73.5343 141.312 73.5343 132.762C73.5343 124.337 75.6784 116.778 79.9665 110.087C84.3975 103.396 90.4008 98.1302 97.9765 94.2892C105.695 90.3241 114.343 88.3417 123.92 88.3417C132.782 88.3417 140.572 90.0764 147.29 93.5457C154.151 96.8912 159.511 101.6 163.37 107.671C167.229 113.742 169.159 120.743 169.159 128.673C169.159 129.169 169.087 129.974 168.945 131.089C168.945 132.081 168.802 133.382 168.516 134.993H78.2513V129.603H164.228L162.298 130.904C162.87 123.593 161.583 117.15 158.439 111.574C155.294 105.998 150.72 101.662 144.717 98.564C138.856 95.3423 131.853 93.7316 123.705 93.7316C115.129 93.7316 107.553 95.4043 100.978 98.7498C94.5461 101.971 89.4719 106.494 85.7554 112.318C82.1821 118.017 80.3953 124.708 80.3953 132.391C80.3953 140.32 82.2534 147.259 85.9698 153.207C89.8291 159.154 95.1893 163.801 102.05 167.146C108.911 170.492 116.916 172.165 126.064 172.165C132.925 172.165 139.214 171.049 144.931 168.819C150.792 166.589 155.723 163.243 159.725 158.783L164.228 162.686C159.797 167.27 154.151 170.926 147.29 173.651C140.572 176.254 133.211 177.555 125.206 177.555ZM196.172 175.696V90.2003H202.819V175.696H196.172ZM266.497 175.696V121.796C266.497 113.371 263.638 106.556 257.921 101.352C252.204 96.1478 244.842 93.5457 235.837 93.5457C229.834 93.5457 224.332 94.7229 219.328 97.0771C214.325 99.4313 210.323 102.715 207.322 106.928C204.32 111.017 202.819 115.849 202.819 121.425L198.317 121.239C198.317 114.672 199.96 108.91 203.248 103.954C206.678 98.9977 211.253 95.1565 216.97 92.4306C222.831 89.7047 229.333 88.3417 236.481 88.3417C243.484 88.3417 249.702 89.7047 255.134 92.4306C260.708 95.1565 265.069 98.9977 268.213 103.954C271.501 108.91 273.144 114.734 273.144 121.425V175.696H266.497ZM336.822 175.696V121.796C336.822 113.371 333.963 106.556 328.246 101.352C322.529 96.1478 315.167 93.5457 306.162 93.5457C300.159 93.5457 294.657 94.7229 289.653 97.0771C284.65 99.4313 280.648 102.715 277.647 106.928C274.645 111.017 273.144 115.849 273.144 121.425L268.641 121.239C268.641 114.548 270.357 108.786 273.787 103.954C277.218 98.9977 281.792 95.1565 287.509 92.4306C293.37 89.7047 299.802 88.3417 306.806 88.3417C313.809 88.3417 320.027 89.7047 325.459 92.4306C331.033 95.1565 335.394 99.0595 338.538 104.14C341.826 109.096 343.469 114.92 343.469 121.611V175.696H336.822ZM375.611 175.696V90.2003H382.258V175.696H375.611ZM378.827 68.8263C376.97 68.8263 375.397 68.2067 374.11 66.9677C372.824 65.7287 372.181 64.3037 372.181 62.6929C372.181 60.9582 372.824 59.5333 374.11 58.4182C375.397 57.303 376.97 56.7454 378.827 56.7454C380.829 56.7454 382.472 57.303 383.759 58.4182C385.187 59.5333 385.903 60.9582 385.903 62.6929C385.903 64.3037 385.187 65.7287 383.759 66.9677C382.472 68.2067 380.829 68.8263 378.827 68.8263ZM407.211 172.536L476.893 93.3599H484.826L415.144 172.536H407.211ZM407.211 175.696V172.536L411.713 170.678H483.754V175.696H407.211ZM410.641 95.2185V90.2003H484.826V93.3599L478.179 95.2185H410.641ZM517.976 176.625C512.544 176.625 508.685 174.147 506.399 169.191C504.254 164.235 503.182 156.304 503.182 145.401C503.182 129.293 505.827 113.99 511.115 99.4933C512.402 95.8999 514.474 93.2979 517.333 91.6871C520.335 89.9524 524.481 89.0851 529.769 89.0851C532.628 89.0851 534.628 89.3948 535.772 90.0144C536.916 90.634 537.487 91.811 537.487 93.5457C537.487 95.5282 536.415 99.9888 534.271 106.928C532.842 111.884 531.698 116.221 530.841 119.938C529.983 123.531 529.268 128.054 528.697 133.506C532.556 123.841 537.131 115.663 542.419 108.972C547.851 102.281 553.353 97.3249 558.928 94.1033C564.645 90.7578 570.005 89.0851 575.008 89.0851C580.012 89.0851 583.512 90.0764 585.514 92.0589C587.658 94.0413 588.73 97.0771 588.73 101.166C588.73 105.131 587.372 112.318 584.656 122.726C583.512 127.186 582.727 130.532 582.298 132.762C589.445 117.522 597.378 106.432 606.097 99.4933C614.816 92.5544 622.963 89.0851 630.539 89.0851C639.831 89.0851 644.476 93.112 644.476 101.166C644.476 105.998 642.903 114.734 639.759 127.372C637.043 138.152 635.685 145.277 635.685 148.746C635.685 153.702 637.757 156.181 641.903 156.181C644.762 156.181 648.12 154.694 651.98 151.72C655.981 148.623 661.271 143.666 667.846 136.851C669.561 135.116 671.491 134.249 673.635 134.249C675.492 134.249 676.923 134.993 677.923 136.479C679.067 137.966 679.638 140.011 679.638 142.613C679.638 147.569 678.28 151.411 675.564 154.136C669.419 160.704 662.772 166.094 655.625 170.306C648.621 174.518 640.616 176.625 631.611 176.625C624.321 176.625 618.819 174.829 615.102 171.235C611.385 167.518 609.527 162.191 609.527 155.251C609.527 151.782 610.527 145.587 612.529 136.665C614.387 128.859 615.316 123.469 615.316 120.495C615.316 118.513 614.531 117.522 612.958 117.522C611.1 117.522 608.455 119.628 605.025 123.841C601.594 127.93 598.164 133.382 594.734 140.197C591.303 147.011 588.516 154.199 586.372 161.756C584.799 167.704 582.941 171.669 580.797 173.651C578.795 175.633 575.509 176.625 570.935 176.625C566.218 176.625 562.645 174.704 560.214 170.864C557.928 166.898 556.784 162.128 556.784 156.552C556.784 151.843 557.499 145.029 558.928 136.108C560.072 128.178 560.643 122.974 560.643 120.495C560.643 118.513 559.857 117.522 558.285 117.522C556.141 117.522 553.425 119.752 550.137 124.213C546.849 128.673 543.633 134.373 540.489 141.312C537.487 148.251 535.057 155.065 533.199 161.756C531.626 167.581 529.769 171.545 527.625 173.651C525.623 175.633 522.407 176.625 517.976 176.625ZM688.673 176.625C679.811 176.625 672.735 173.837 667.447 168.262C662.159 162.686 659.514 155.375 659.514 146.33C659.514 136.417 662.159 127.063 667.447 118.265C672.735 109.344 679.74 102.219 688.459 96.8912C697.321 91.4393 706.683 88.7134 716.546 88.7134C719.69 88.7134 721.764 89.271 722.764 90.3861C723.908 91.3774 724.836 93.236 725.551 95.9619C728.553 95.4663 731.697 95.2185 734.985 95.2185C741.988 95.2185 745.491 97.3868 745.491 101.724C745.491 104.326 744.419 110.521 742.275 120.31C738.986 134.559 737.343 144.471 737.343 150.047C737.343 151.906 737.844 153.393 738.844 154.508C739.988 155.623 741.417 156.181 743.132 156.181C745.847 156.181 749.135 154.694 752.995 151.72C756.854 148.623 762.072 143.666 768.646 136.851C770.362 135.116 772.291 134.249 774.435 134.249C776.293 134.249 777.723 134.993 778.723 136.479C779.867 137.966 780.439 140.011 780.439 142.613C780.439 147.569 779.08 151.411 776.365 154.136C770.504 160.455 764.286 165.783 757.712 170.12C751.137 174.457 744.775 176.625 738.63 176.625C733.913 176.625 729.553 175.262 725.551 172.536C721.692 169.686 718.762 165.845 716.76 161.013C709.328 171.421 699.965 176.625 688.673 176.625ZM696.392 157.853C699.536 157.853 702.537 156.243 705.397 153.021C708.256 149.799 710.328 145.524 711.615 140.197L719.548 105.998C713.544 106.122 707.97 108.105 702.824 111.946C697.821 115.663 693.819 120.619 690.817 126.815C687.816 133.01 686.315 139.577 686.315 146.516C686.315 150.357 687.172 153.207 688.888 155.065C690.745 156.924 693.248 157.853 696.392 157.853ZM858.638 134.249C860.496 134.249 861.926 134.993 862.926 136.479C864.07 137.966 864.641 140.011 864.641 142.613C864.641 147.569 863.283 151.411 860.567 154.136C854.422 160.704 847.703 166.094 840.413 170.306C833.124 174.518 824.762 176.625 815.328 176.625C786.169 176.625 771.589 158.845 771.589 123.283C771.589 117.831 771.804 112.318 772.233 106.742H763.871C759.583 106.742 756.653 106.06 755.08 104.697C753.651 103.334 752.936 101.166 752.936 98.1922C752.936 91.2534 756.152 87.7841 762.584 87.7841H774.805C777.236 74.1543 780.951 61.7016 785.955 50.4262C790.958 39.1507 796.961 30.1674 803.965 23.4765C811.112 16.7855 818.759 13.44 826.906 13.44C832.909 13.44 837.626 15.7323 841.057 20.3168C844.487 24.9013 846.202 30.663 846.202 37.6018C846.202 56.8074 836.911 73.5348 818.33 87.7841H842.343C844.63 87.7841 846.274 88.2178 847.274 89.0851C848.274 89.9524 848.775 91.5633 848.775 93.9175C848.775 102.467 840.7 106.742 824.547 106.742H798.39C798.104 112.937 797.961 117.77 797.961 121.239C797.961 134.125 799.676 143.17 803.107 148.374C806.68 153.579 812.254 156.181 819.831 156.181C825.976 156.181 831.408 154.57 836.125 151.348C840.842 148.126 846.417 143.294 852.849 136.851C854.564 135.116 856.494 134.249 858.638 134.249ZM821.117 31.2826C818.973 31.2826 816.543 33.6368 813.827 38.3453C811.254 42.9298 808.754 49.373 806.323 57.6747C804.037 65.8526 802.107 74.9597 800.534 84.9962C808.968 78.6769 815.256 71.6142 819.402 63.8081C823.69 55.8781 825.834 48.6914 825.834 42.2483C825.834 34.9378 824.261 31.2826 821.117 31.2826ZM875.271 76.8183C869.268 76.8183 864.765 75.6412 861.764 73.287C858.762 70.8088 857.261 67.4015 857.261 63.0647C857.261 58.7279 859.191 55.1347 863.05 52.2848C867.052 49.311 871.983 47.8241 877.844 47.8241C883.132 47.8241 887.42 48.9393 890.708 51.1696C893.996 53.3999 895.64 56.5596 895.64 60.6485C895.64 65.6047 893.782 69.5698 890.065 72.5435C886.348 75.3934 881.417 76.8183 875.271 76.8183ZM873.556 176.625C864.264 176.625 857.475 173.775 853.187 168.076C849.042 162.376 846.97 154.817 846.97 145.401C846.97 139.825 847.755 132.7 849.328 124.027C851.043 115.229 853.187 107.052 855.76 99.4933C857.047 95.5282 858.762 92.8023 860.906 91.3154C863.05 89.8285 866.48 89.0851 871.197 89.0851C878.487 89.0851 882.132 91.1916 882.132 95.4043C882.132 98.502 880.774 105.689 878.058 116.964C874.628 130.594 872.913 139.825 872.913 144.657C872.913 148.374 873.484 151.225 874.628 153.207C875.772 155.189 877.702 156.181 880.417 156.181C882.99 156.181 886.206 154.631 890.065 151.534C893.924 148.437 899.07 143.542 905.502 136.851C907.217 135.116 909.147 134.249 911.291 134.249C913.149 134.249 914.579 134.993 915.579 136.479C916.723 137.966 917.295 140.011 917.295 142.613C917.295 147.569 915.936 151.411 913.221 154.136C899.07 169.128 885.849 176.625 873.556 176.625ZM991.07 156.366C996.931 157.358 999.861 160.146 999.861 164.73C999.861 167.827 998.217 170.615 994.929 173.094C991.785 175.448 987.211 176.625 981.207 176.625C970.916 176.625 962.482 173.9 955.908 168.447C949.475 162.872 946.259 155.623 946.259 146.702C946.259 141.869 949.119 138.4 954.835 136.294C961.125 133.939 965.628 131.461 968.343 128.859C971.058 126.133 972.417 122.85 972.417 119.009C972.417 116.778 971.845 115.106 970.701 113.99C969.701 112.875 968.415 112.318 966.842 112.318C962.983 112.318 958.695 114.734 953.978 119.566C949.403 124.399 945.115 130.656 941.113 138.338C937.112 145.896 933.966 153.702 931.68 161.756C930.107 167.581 928.249 171.545 926.105 173.651C924.104 175.633 920.887 176.625 916.457 176.625C912.026 176.625 908.738 175.262 906.594 172.536C904.593 169.686 903.236 165.35 902.521 159.526C901.805 153.702 901.449 145.153 901.449 133.877C901.449 114.796 903.665 94.9088 908.095 74.2163C912.67 53.5238 919.316 36.1769 928.035 22.1754C936.897 8.05005 947.474 0.987366 959.767 0.987366C966.341 0.987366 971.631 3.4655 975.633 8.42178C979.779 13.2541 981.851 19.5734 981.851 27.3795C981.851 39.8942 977.634 52.9044 969.201 66.4102C960.767 79.7921 947.045 95.4663 928.035 113.433C927.606 119.876 927.392 126.505 927.392 133.32C934.253 117.831 942.114 106.618 950.976 99.6791C959.839 92.6164 968.129 89.0851 975.847 89.0851C982.995 89.0851 988.712 91.1916 993 95.4043C997.43 99.6171 999.646 104.821 999.646 111.017C999.646 117.831 997.645 124.089 993.643 129.788C989.641 135.488 982.78 140.568 973.06 145.029C973.918 148.746 975.633 151.348 978.206 152.835C980.921 154.199 985.209 155.375 991.07 156.366ZM955.264 19.3875C952.691 19.3875 949.832 22.6092 946.688 29.0523C943.544 35.3715 940.47 43.9831 937.469 54.8868C934.609 65.6667 932.251 77.4379 930.393 90.2003C939.256 81.1551 946.546 71.3045 952.263 60.6485C958.124 49.9925 961.053 40.3277 961.053 31.6543C961.053 27.6892 960.552 24.6536 959.552 22.5472C958.552 20.4407 957.122 19.3875 955.264 19.3875Z" fill="black" fill-opacity="0.02"/>
</svg>
