<svg width="512" height="512" viewBox="0 0 512 512" fill="none" xmlns="http://www.w3.org/2000/svg">
<path d="M317.549 8.17C267.393 8.17 226.587 48.975 226.587 99.132V279.421H259.268V99.132C259.268 66.996 285.413 40.851 317.549 40.851C349.685 40.851 375.83 66.996 375.83 99.132V181.379H408.511V99.132C408.511 48.976 367.705 8.17 317.549 8.17Z" fill="#A2B1B7"/>
<path d="M413.957 159.591H370.383V438.468H413.957V159.591Z" fill="#C4D3D9"/>
<path d="M139.547 8.17C130.523 8.17 123.207 15.486 123.207 24.51V148.697H155.888V24.511C155.888 15.486 148.572 8.17 139.547 8.17Z" fill="#A2B1B7"/>
<path d="M166.781 126.911H112.313V184.489H166.781V126.911Z" fill="#C4D3D9"/>
<path d="M183.122 167.761H139.548L226.697 471.149H259.378V279.421C259.377 228.616 227.756 185.193 183.122 167.761Z" fill="#ED6350"/>
<path d="M183.124 175.626L95.973 167.761C51.339 185.193 19.718 228.615 19.718 279.422V471.15H226.697V279.421C226.696 235.07 209.171 196.347 183.124 175.626Z" fill="#F37C4A"/>
<path d="M41.505 405.787C29.472 405.787 19.718 415.541 19.718 427.574V482.042C19.718 494.075 29.472 503.829 41.505 503.829C53.538 503.829 63.292 494.075 63.292 482.042V427.574C63.292 415.541 53.538 405.787 41.505 405.787Z" fill="#414D53"/>
<path d="M237.59 405.787C225.557 405.787 215.803 415.541 215.803 427.574V482.042C215.803 494.075 225.557 503.829 237.59 503.829C249.623 503.829 259.377 494.075 259.377 482.042V427.574C259.377 415.541 249.623 405.787 237.59 405.787Z" fill="#414D53"/>
<path d="M183.122 167.762V203.166C183.122 215.149 173.318 224.953 161.335 224.953H117.76C105.777 224.953 95.973 215.149 95.973 203.166V167.762C109.481 162.489 124.177 159.592 139.547 159.592C154.917 159.592 169.614 162.489 183.122 167.762Z" fill="#FBCFA3"/>
<path d="M419.404 438.468H386.723V492.936L452.085 471.149C452.085 453.174 437.379 438.468 419.404 438.468Z" fill="#748993"/>
<path d="M419.404 471.149L375.83 492.936L332.256 471.149C332.256 453.175 346.962 438.468 364.937 438.468H386.724C404.698 438.468 419.404 453.174 419.404 471.149Z" fill="#A2B1B7"/>
<path d="M459.602 471.149L426.921 487.489L459.602 503.83H492.283V471.149H459.602Z" fill="#414D53"/>
<path d="M459.602 471.149H292.058V503.83H459.602V471.149Z" fill="#57676E"/>
<path d="M95.973 413.957H183.122C187.634 413.957 191.292 410.299 191.292 405.787C191.292 401.275 187.634 397.617 183.122 397.617H95.973C91.461 397.617 87.803 401.275 87.803 405.787C87.803 410.299 91.461 413.957 95.973 413.957Z" fill="black"/>
<path d="M95.973 381.277H183.122C187.634 381.277 191.292 377.619 191.292 373.107C191.292 368.595 187.634 364.937 183.122 364.937H95.973C91.461 364.937 87.803 368.595 87.803 373.107C87.803 377.618 91.461 381.277 95.973 381.277Z" fill="black"/>
<path d="M95.973 348.596H183.122C187.634 348.596 191.292 344.938 191.292 340.426C191.292 335.914 187.634 332.256 183.122 332.256H95.973C91.461 332.256 87.803 335.914 87.803 340.426C87.803 344.938 91.461 348.596 95.973 348.596Z" fill="black"/>
<path d="M186.619 160.389C186.237 160.207 185.84 160.051 185.427 159.929C182.003 158.61 178.511 157.43 174.952 156.405V126.911C174.952 122.399 171.294 118.741 166.782 118.741H164.059V24.511C164.058 10.995 153.063 0 139.547 0C126.031 0 115.036 10.995 115.036 24.511V118.741H112.313C107.801 118.741 104.143 122.399 104.143 126.911V156.405C100.585 157.43 97.093 158.61 93.668 159.929C93.255 160.05 92.859 160.207 92.476 160.389C45.12 179.182 11.547 225.454 11.547 279.421V482.042C11.547 498.561 24.985 511.999 41.504 511.999C58.023 511.999 71.461 498.561 71.461 482.042V427.574C71.461 411.055 58.023 397.617 41.504 397.617C36.602 397.617 31.975 398.808 27.887 400.905V279.421C27.887 236.514 52.217 199.19 87.802 180.499V203.165C87.802 219.684 101.24 233.122 117.759 233.122H161.333C177.852 233.122 191.29 219.684 191.29 203.165V180.5C226.875 199.189 251.205 236.515 251.205 279.422V400.905C247.117 398.809 242.49 397.617 237.588 397.617C221.069 397.617 207.631 411.055 207.631 427.574V462.978H95.973C91.461 462.978 87.803 466.636 87.803 471.148C87.803 475.66 91.461 479.318 95.973 479.318H207.633V482.041C207.633 498.56 221.071 511.998 237.59 511.998C254.109 511.998 267.547 498.56 267.547 482.041V279.421C267.547 225.454 233.974 179.181 186.619 160.389ZM41.505 413.957C49.014 413.957 55.122 420.065 55.122 427.574V482.042C55.122 489.551 49.014 495.659 41.505 495.659C33.996 495.659 27.888 489.551 27.888 482.042V427.574C27.888 420.065 33.997 413.957 41.505 413.957ZM131.377 24.511C131.377 20.005 135.042 16.341 139.547 16.341C144.052 16.341 147.717 20.006 147.717 24.511V118.741H131.377V24.511ZM120.483 135.081H158.611V152.842C152.39 151.908 146.025 151.421 139.547 151.421C133.069 151.421 126.705 151.909 120.483 152.842V135.081ZM174.951 203.166C174.951 210.675 168.843 216.783 161.334 216.783H117.76C110.251 216.783 104.143 210.675 104.143 203.166V173.518C115.273 169.787 127.178 167.762 139.547 167.762C151.916 167.762 163.821 169.787 174.951 173.518V203.166ZM251.207 482.043C251.207 489.552 245.099 495.66 237.59 495.66C230.081 495.66 223.973 489.552 223.973 482.043V427.575C223.973 420.066 230.081 413.958 237.59 413.958C245.099 413.958 251.207 420.066 251.207 427.575V482.043Z" fill="black"/>
<path d="M492.283 462.979H459.433C455.814 445.22 440.635 431.624 422.128 430.399V159.591C422.128 156.035 419.852 153.019 416.681 151.896V99.132C416.681 44.47 372.211 0 317.549 0C262.887 0 218.417 44.47 218.417 99.132V154.261C218.417 158.773 222.075 162.431 226.587 162.431C231.099 162.431 234.757 158.773 234.757 154.261V99.132C234.757 53.48 271.897 16.341 317.548 16.341C363.199 16.341 400.34 53.481 400.34 99.132V151.421H384V99.132C384 62.49 354.191 32.681 317.549 32.681C280.907 32.681 251.098 62.49 251.098 99.132V185.044C251.098 189.556 254.756 193.214 259.268 193.214C263.78 193.214 267.438 189.556 267.438 185.044V99.132C267.438 71.501 289.918 49.021 317.549 49.021C345.18 49.021 367.66 71.501 367.66 99.132V151.896C364.489 153.019 362.213 156.036 362.213 159.591V430.399C343.706 431.625 328.527 445.22 324.908 462.979H292.058C287.546 462.979 283.888 466.637 283.888 471.149V503.83C283.888 508.342 287.546 512 292.058 512H492.283C496.795 512 500.453 508.342 500.453 503.83V471.149C500.453 466.637 496.795 462.979 492.283 462.979ZM378.553 430.298V167.762H405.787V430.298H378.553ZM364.936 446.638H419.404C430.056 446.638 439.137 453.469 442.509 462.978H341.831C345.203 453.47 354.284 446.638 364.936 446.638ZM484.112 495.66H300.228V479.32H484.112V495.66Z" fill="black"/>
</svg>
